<svg width="68" height="47" viewBox="0 0 68 47" fill="none" xmlns="http://www.w3.org/2000/svg">
<g clip-path="url(#clip0_2311_106)">
<path d="M12.6532 33.7145L18.0128 26.779L23.3405 33.7145L25.8692 30.4395L20.511 23.5511L25.8692 16.6579L23.3405 13.3828L18.0128 20.2731L12.7215 13.3828L10.1899 16.6579L15.4842 23.5511L10.123 30.4395L12.6532 33.7145Z" fill="black"/>
<path d="M59.0112 18.0719L56.4825 14.7969L47.9806 25.7945L42.6879 18.9051L40.1562 22.1783L47.9806 32.3004L59.0112 18.0719Z" fill="black"/>
<path d="M17.9975 46.3642C24.9193 46.3642 30.9059 41.1652 33.7904 33.6387C36.6763 41.1652 42.6622 46.3642 49.5848 46.3642C59.3101 46.3642 67.2199 36.1315 67.2199 23.5493C67.2199 10.967 59.3101 0.734375 49.5848 0.734375C42.6629 0.734375 36.6763 5.93334 33.7904 13.4598C30.9059 5.93334 24.92 0.734375 17.9975 0.734375C8.27213 0.734375 0.362305 10.967 0.362305 23.5493C0.362305 36.1315 8.27213 46.3642 17.9975 46.3642ZM49.584 6.50129C56.8513 6.50129 62.7621 14.1479 62.7621 23.5502C62.7621 32.9526 56.8513 40.5992 49.584 40.5992C42.3182 40.5992 36.4059 32.9526 36.4059 23.5502C36.4059 14.1479 42.3182 6.50129 49.584 6.50129ZM17.9975 6.50129C25.2632 6.50129 31.1756 14.1479 31.1756 23.5502C31.1756 32.9526 25.2632 40.5992 17.9975 40.5992C10.7302 40.5992 4.81938 32.9526 4.81938 23.5502C4.81938 14.1479 10.7295 6.50129 17.9975 6.50129Z" fill="black"/>
</g>
<defs>
<clipPath id="clip0_2311_106">
<rect width="66.8576" height="45.6298" fill="white" transform="translate(0.362305 0.734375)"/>
</clipPath>
</defs>
</svg>
