<svg width="24" height="26" viewBox="0 0 24 26" fill="none" xmlns="http://www.w3.org/2000/svg">
<path d="M1.46313 4.7832H22.4421C22.8878 4.7832 23.249 4.31589 23.249 3.73937V1.12977C23.249 0.55325 22.8878 0.0859375 22.4421 0.0859375H1.46313C1.01748 0.0859375 0.65625 0.55325 0.65625 1.12977V3.73937C0.65625 4.31589 1.01748 4.7832 1.46313 4.7832ZM1.46313 15.2216H22.4421C22.8878 15.2216 23.249 14.7543 23.249 14.1777V11.5681C23.249 10.9916 22.8878 10.5243 22.4421 10.5243H1.46313C1.01748 10.5243 0.65625 10.9916 0.65625 11.5681V14.1777C0.65625 14.7543 1.01748 15.2216 1.46313 15.2216ZM1.46313 25.6599H22.4421C22.8878 25.6599 23.249 25.1926 23.249 24.6161V22.0065C23.249 21.43 22.8878 20.9627 22.4421 20.9627H1.46313C1.01748 20.9627 0.65625 21.43 0.65625 22.0065V24.6161C0.65625 25.1926 1.01748 25.6599 1.46313 25.6599Z" fill="black"/>
</svg>
